<svg width="80" height="50" viewBox="0 0 80 50" fill="none" xmlns="http://www.w3.org/2000/svg">
<path fill-rule="evenodd" clip-rule="evenodd" d="M32.91 22.6819C34.57 21.8495 35.825 20.9224 36.685 19.9206C38.215 18.1162 38.97 15.7237 38.97 12.758C38.97 9.87197 38.215 7.40468 36.705 5.33614C34.185 1.96667 29.92 0.242063 23.89 0.152344H0V48.7654H22.275C24.785 48.7654 27.11 48.5511 29.26 48.1125C31.41 47.6689 33.27 46.8564 34.845 45.6701C36.245 44.6383 37.415 43.3573 38.345 41.847C39.815 39.5642 40.55 36.9773 40.55 34.0963C40.55 31.305 39.905 28.9274 38.625 26.9735C37.33 25.0196 35.43 23.5891 32.91 22.6819ZM9.855 8.59596H20.615C22.98 8.59596 24.93 8.85016 26.46 9.35359C28.23 10.0863 29.115 11.5766 29.115 13.8495C29.115 15.8882 28.44 17.3137 27.105 18.1162C25.76 18.9187 24.015 19.3224 21.875 19.3224H9.855V8.59596ZM26.87 39.4745C25.68 40.0477 24.005 40.3318 21.86 40.3318H9.855V27.3673H22.025C24.145 27.3822 25.795 27.6614 26.975 28.1847C29.075 29.1318 30.12 30.8664 30.12 33.4034C30.12 36.3941 29.04 38.4078 26.87 39.4745ZM51.12 2.42026H72.305V8.47135H51.12V2.42026ZM76.745 18.8688C78.255 21.0071 79.225 23.4844 79.665 26.3006C79.925 27.9455 80.025 30.333 79.985 33.4383H53.35C53.51 37.042 54.77 39.5741 57.18 41.0196C58.64 41.9218 60.39 42.3754 62.455 42.3754C64.625 42.3754 66.395 41.8271 67.755 40.7305C68.505 40.1324 69.16 39.3099 69.725 38.2582H79.485C79.225 40.3866 78.04 42.5548 75.945 44.7579C72.67 48.247 68.085 49.9965 62.19 49.9965C57.32 49.9965 53.03 48.5261 49.315 45.5754C45.585 42.6296 43.73 37.8296 43.73 31.1853C43.73 24.9548 45.41 20.1747 48.765 16.8501C52.13 13.5355 56.48 11.8657 61.835 11.8657C65.025 11.8607 67.89 12.424 70.435 13.5504C72.99 14.6719 75.09 16.4464 76.745 18.8688ZM56.14 21.6701C54.79 23.0408 53.94 24.895 53.59 27.2327H70.065C69.89 24.7355 69.035 22.8464 67.52 21.5455C65.985 20.2545 64.1 19.6115 61.845 19.6115C59.4 19.6165 57.49 20.3043 56.14 21.6701Z" fill="#B19898"/>
</svg>
