<svg width="80" height="80" viewBox="0 0 80 80" fill="none" xmlns="http://www.w3.org/2000/svg">
<path fill-rule="evenodd" clip-rule="evenodd" d="M54.5133 77.0828C54.58 77.0628 54.6433 77.0362 54.71 77.0129C95.4267 60.8678 84.1633 0 40 0C17.8367 0 0 18.0314 0 39.922C0 67.6246 28.1133 87.3926 54.5133 77.0828ZM17.6034 66.733C20.4434 61.969 29.6334 48.5286 45.3201 43.8909C48.6001 52.238 50.9001 61.9756 51.1267 73.0174C39.2401 77.0063 26.7034 74.3215 17.6034 66.733ZM56.0433 70.9348C55.6067 60.3255 53.4367 50.9172 50.3433 42.7665C57.2833 41.6852 65.3167 42.4072 74.4267 46.0501C72.49 56.8989 65.54 66.0177 56.0433 70.9348ZM74.95 40.8901C64.9166 37.1275 56.0733 36.6584 48.42 38.1156C47.2366 35.4541 45.9933 32.8957 44.6766 30.5403C56.42 25.8595 63.36 20.154 66.4666 17.1332C71.95 23.4675 75.2066 31.6681 74.95 40.8901ZM62.9167 13.5801C60.09 16.2649 53.4334 21.6876 42.05 26.1223C36.47 17.3129 30.5034 11.0983 26.7234 7.61845C38.8167 2.64816 52.7634 4.77068 62.9167 13.5801ZM21.9433 10.057C24.7966 12.5621 31.0599 18.577 37.1033 27.8789C28.8033 30.547 18.3966 32.5065 5.73994 32.7826C7.75327 23.1548 13.7666 14.9974 21.9433 10.057ZM5.1067 37.7929C19.2734 37.5633 30.74 35.331 39.8034 32.3102C41.0567 34.5026 42.2467 36.8913 43.39 39.3731C27.6067 44.39 17.7434 57.3413 13.9667 63.1899C7.87337 56.4032 4.51337 47.5471 5.1067 37.7929Z" fill="#B19898"/>
</svg>
