<svg width="80" height="80" viewBox="0 0 80 80" fill="none" xmlns="http://www.w3.org/2000/svg">
<path fill-rule="evenodd" clip-rule="evenodd" d="M79.6805 23.5156C79.4934 19.2657 78.8075 16.344 77.8249 13.8123C76.8113 11.1249 75.2518 8.71887 73.2087 6.71875C71.2125 4.6875 68.7953 3.10913 66.1443 2.10938C63.6028 1.12488 60.702 0.437622 56.4604 0.250244C52.1871 0.046997 50.8305 0 39.9923 0C29.1541 0 27.7975 0.046997 23.5401 0.234375C19.2985 0.421753 16.3824 1.10962 13.8563 2.09351C11.1735 3.10913 8.77219 4.67163 6.77597 6.71875C4.74868 8.71887 3.17399 11.1407 2.17558 13.797C1.193 16.344 0.507081 19.2499 0.320069 23.4998C0.117218 27.7814 0.0703125 29.1406 0.0703125 40C0.0703125 50.8594 0.117218 52.2186 0.304231 56.4844C0.491243 60.7343 1.17777 63.656 2.16035 66.1877C3.17399 68.8751 4.74868 71.2811 6.77597 73.2812C8.77219 75.3125 11.1893 76.8909 13.8404 77.8906C16.3824 78.8751 19.2827 79.5624 23.5249 79.7498C27.7817 79.9377 29.1389 79.9841 39.9771 79.9841C50.8153 79.9841 52.1719 79.9377 56.4294 79.7498C60.6709 79.5624 63.587 78.8751 66.1132 77.8906C71.4781 75.8124 75.7197 71.5625 77.7939 66.1877C78.7758 63.6407 79.4624 60.7343 79.6494 56.4844C79.8364 52.2186 79.8833 50.8594 79.8833 40C79.8833 29.1406 79.8675 27.7814 79.6805 23.5156ZM72.4918 56.1719C72.32 60.0781 71.6651 62.1875 71.1193 63.5938C69.778 67.0782 67.0178 69.8438 63.5401 71.1877C62.1366 71.7346 60.0161 72.3907 56.1327 72.5623C51.9222 72.7502 50.6594 72.7966 40.0082 72.7966C29.357 72.7966 28.0784 72.7502 23.8831 72.5623C19.9845 72.3907 17.8792 71.7346 16.4757 71.1877C14.7451 70.5469 13.1698 69.5312 11.8911 68.2031C10.5656 66.9061 9.55195 65.3436 8.91233 63.6096C8.36652 62.2034 7.71167 60.0781 7.5405 56.1877C7.35288 51.969 7.30658 50.7031 7.30658 40.0311C7.30658 29.3591 7.35288 28.078 7.5405 23.8751C7.71167 19.9689 8.36652 17.8595 8.91233 16.4532C9.55195 14.7186 10.5656 13.1409 11.907 11.8591C13.2008 10.531 14.7603 9.51538 16.4915 8.87512C17.895 8.32825 20.0161 7.67212 23.8989 7.5C28.1095 7.31262 29.3729 7.26562 40.0234 7.26562C50.6905 7.26562 51.9533 7.31262 56.1486 7.5C60.0472 7.67212 62.1525 8.32825 63.556 8.87512C65.2866 9.51538 66.8619 10.531 68.1405 11.8591C69.4661 13.1561 70.4797 14.7186 71.1193 16.4532C71.6651 17.8595 72.32 19.9841 72.4918 23.8751C72.6788 28.0939 72.7257 29.3591 72.7257 40.0311C72.7257 50.7031 72.6788 51.9531 72.4918 56.1719ZM39.9924 19.4531C28.6711 19.4531 19.4855 28.656 19.4855 40C19.4855 51.344 28.6711 60.5469 39.9924 60.5469C51.3142 60.5469 60.4992 51.344 60.4992 40C60.4992 28.656 51.3142 19.4531 39.9924 19.4531ZM39.9924 53.3282C32.6477 53.3282 26.6901 47.3596 26.6901 40C26.6901 32.6404 32.6477 26.6718 39.9924 26.6718C47.3377 26.6718 53.2947 32.6404 53.2947 40C53.2947 47.3596 47.3377 53.3282 39.9924 53.3282ZM61.3098 23.4375C63.9542 23.4375 66.0979 21.2897 66.0979 18.6407C66.0979 15.9912 63.9542 13.844 61.3098 13.844C58.6661 13.844 56.5224 15.9912 56.5224 18.6407C56.5224 21.2897 58.6661 23.4375 61.3098 23.4375Z" fill="#B19898"/>
</svg>
